# xmcd
#
# Track frame offsets:
#	150
#	16893
#	32563
#	53659
#	67831
#	84757
#	96891
#	113857
#	136880
#	154270
#
# Disc length: 2284 seconds
#
# Revision: 0
# Processed by: cddbd v1.5.2PL0 Copyright (c) Steve Scherf et al.
# Submitted via: EasyCDDAExtractor 9.0.0.1
#
DISCID=6e08ea0a
DTITLE=The Black Sheep Music Society - Set In Stone
DYEAR=2007
DGENRE=Easy Listening
TTITLE0=Lonely Town
TTITLE1=One Town Band
TTITLE2=Still Want Her Love
TTITLE3=Lizard Groove
TTITLE4=Empty Heart
TTITLE5=Black Sheep
TTITLE6=Fly
TTITLE7=Sunrise
TTITLE8=Nancy's Jeans
TTITLE9=Home
EXTD=
EXTT0=
EXTT1=
EXTT2=
EXTT3=
EXTT4=
EXTT5=
EXTT6=
EXTT7=
EXTT8=
EXTT9=
PLAYORDER=
